# Blender 5.1.0
# www.blender.org
mtllib platforms.mtl
o MainShape
v -1.040000 0.053369 0.887812
v 0.980010 -0.157266 -1.020047
v -0.909620 0.223505 0.749490
v 1.020047 -0.157266 -0.980010
v -0.749490 0.223505 0.909620
v 1.040000 0.152500 1.000028
v 0.980011 -0.197306 -0.980011
v -1.040000 0.053369 0.787812
v -0.749490 0.223505 -0.909620
v 0.995303 -0.157247 -1.016917
v -0.909620 0.223505 -0.749490
v 1.000028 0.152500 1.040000
v 1.008273 -0.157253 -1.008273
v -0.975712 -0.115694 0.975712
v 0.749490 0.223505 0.909620
v 0.975712 -0.115694 -0.975712
v 0.887812 0.053369 1.040000
v 0.909620 0.223505 0.749490
v 0.979991 -0.172559 -1.016914
v 0.975712 -0.115694 0.975712
v 1.036957 0.152500 1.015325
v 0.909620 0.223505 -0.749490
v -0.975712 -0.115694 -0.975712
v 0.749490 0.223505 -0.909620
v 1.028292 0.152500 1.028292
v -0.975712 -0.057005 0.975712
v 0.995675 -0.172931 -1.013285
v 0.975712 -0.057005 0.975712
v -0.860622 0.066048 1.040000
v -0.975712 -0.057005 -0.975712
v 0.975712 -0.057005 -0.975712
v 1.006311 -0.172192 -1.006311
v 0.787812 0.053369 1.040000
v 1.003009 -0.180265 -1.003009
v 1.016914 -0.172559 -0.979991
v 1.015325 0.152500 1.036957
v 1.008273 -0.185528 -0.979997
v 1.000028 0.187500 1.040000
v 1.016917 -0.157247 -0.995303
v -1.040000 0.066048 -0.860622
v 1.013285 -0.172931 -0.995675
v -0.760622 0.066048 1.040000
v 1.006311 -0.183566 -0.994936
v 1.040000 0.187500 1.000028
v 0.979991 -0.194170 -0.995303
v -1.040000 0.066048 -0.760623
v 1.015325 0.187500 1.036957
v 0.979997 -0.185528 -1.008273
v -1.000026 0.042774 1.040000
v 0.995303 -0.194170 -0.979991
v 1.028292 0.187500 1.028292
v 0.995675 -0.190541 -0.995675
v 0.994936 -0.183566 -1.006311
v 1.036957 0.187500 1.015325
v 0.980011 0.303021 -0.980011
v -1.040000 0.176631 -0.912188
v 0.999982 0.152500 -1.040000
v 1.020047 0.262946 -0.980010
v 1.040000 0.152500 -0.999982
v 0.980010 0.262946 -1.020047
v 0.995303 0.299850 -0.979991
v 1.015296 0.152500 -1.036954
v 1.028279 0.152500 -1.028279
v 1.008273 0.291208 -0.979997
v 0.979991 0.299850 -0.995303
v -0.912188 0.176631 1.040000
v 0.995675 0.296221 -0.995675
v 0.839378 0.163952 1.040000
v 1.036954 0.152500 -1.015296
v 1.006311 0.289246 -0.994936
v 1.040000 0.187500 -0.999982
v 1.003009 0.285944 -1.003009
v 1.016917 0.262927 -0.995303
v 0.999982 0.187500 -1.040000
v 0.939377 0.163952 1.040000
v 1.008273 0.262932 -1.008273
v 1.036954 0.187500 -1.015296
v 1.016914 0.278238 -0.979991
v 1.013285 0.278610 -0.995675
v -1.040000 0.163952 0.839378
v 1.028279 0.187500 -1.028279
v 1.006311 0.277871 -1.006311
v 0.979991 0.278238 -1.016914
v -1.040000 0.176631 -0.812188
v 0.979997 0.291208 -1.008273
v 1.015296 0.187500 -1.036954
v -0.812188 0.176631 1.040000
v 0.995303 0.262927 -1.016917
v -1.040000 0.152500 -1.000034
v 0.995675 0.278610 -1.013285
v 0.994936 0.289246 -1.006311
v -1.040000 0.163952 0.939377
v -1.000034 0.152500 -1.040000
v 1.020047 -0.157266 0.980010
v 0.980010 -0.157266 1.020047
v -1.036958 0.152500 -1.015328
v 0.980011 -0.197306 0.980011
v -1.040000 0.042774 1.000026
v -1.028294 0.152500 -1.028294
v 1.016917 -0.157247 0.995303
v -1.015328 0.152500 -1.036958
v 1.008273 -0.157253 1.008273
v -1.000034 0.187500 -1.040000
v 1.016914 -0.172559 0.979991
v -1.040000 0.187500 -1.000034
v 1.013285 -0.172931 0.995675
v -0.887812 0.053369 1.040000
v 1.006311 -0.172192 1.006311
v -1.040000 0.053369 -0.787812
v 1.003009 -0.180265 1.003009
v 0.979991 -0.172559 1.016914
v -1.015328 0.187500 -1.036958
v -1.040000 0.066048 0.860622
v 0.979997 -0.185528 1.008273
v 0.995303 -0.157247 1.016917
v -1.028294 0.187500 -1.028294
v 0.995675 -0.172931 1.013285
v -1.036958 0.187500 -1.015328
v 0.860622 0.066048 1.040000
v 0.994936 -0.183566 1.006311
v 0.760623 0.066048 1.040000
v 0.995303 -0.194170 0.979991
v -0.999997 0.152500 1.040000
v 1.008273 -0.185528 0.979997
v 0.979991 -0.194170 0.995303
v -1.040000 0.066048 0.760623
v 0.995675 -0.190541 0.995675
v -1.040000 0.152500 0.999997
v -1.040000 0.053369 -0.887812
v 1.006311 -0.183566 0.994936
v -1.015305 0.152500 1.036955
v 1.020047 0.262946 0.980010
v -1.015323 0.042774 1.036957
v 0.980009 0.302919 0.980009
v -1.028283 0.152500 1.028283
v 0.980010 0.262946 1.020047
v 1.016914 0.278238 0.979991
v -1.036955 0.152500 1.015305
v 1.008273 0.291208 0.979997
v -0.787812 0.053369 1.040000
v 1.016917 0.262927 0.995303
v -1.040000 0.187500 0.999997
v 0.912188 0.176631 1.040000
v 1.013285 0.278610 0.995675
v 1.006311 0.289246 0.994936
v -0.999997 0.187500 1.040000
v -1.036955 0.187500 1.015305
v 1.003009 0.285944 1.003009
v -1.040000 0.176631 0.812188
v 0.979991 0.299849 0.995303
v -1.028283 0.187500 1.028283
v 0.979997 0.291208 1.008273
v 0.812188 0.176631 1.040000
v 0.995303 0.299849 0.979991
v -1.015305 0.187500 1.036955
v 0.995675 0.296221 0.995675
v 0.994936 0.289246 1.006311
v -1.040000 0.163952 -0.939377
v 0.995303 0.262927 1.016917
v -1.040000 0.163952 -0.839378
v 1.008273 0.262932 1.008273
v -0.939377 0.163952 1.040000
v 0.979991 0.278238 1.016914
v -1.040000 0.176631 0.912188
v 0.995675 0.278610 1.013285
v -1.028292 0.042774 1.028292
v 1.006311 0.277871 1.006311
v -0.839377 0.163952 1.040000
v -0.980010 -0.157266 -1.020047
v -0.760623 0.066048 -1.040000
v 0.887812 0.053369 -1.040000
v -0.980011 -0.197306 -0.980011
v -1.036957 0.042774 1.015323
v -1.020047 -0.157266 -0.980010
v -0.979991 -0.172559 -1.016914
v 1.040000 0.053369 0.787812
v -0.979997 -0.185528 -1.008273
v 1.040000 0.066048 -0.760623
v -0.995303 -0.157247 -1.016917
v 1.040000 0.066048 -0.860622
v -0.995675 -0.172931 -1.013285
v -0.860622 0.066048 -1.040000
v -0.994936 -0.183566 -1.006311
v 1.040000 0.053369 0.887812
v 0.787812 0.053369 -1.040000
v -1.003009 -0.180265 -1.003009
v -1.040000 0.077774 1.000026
v -0.995303 -0.194170 -0.979991
v -1.008273 -0.185528 -0.979997
v -0.812188 0.176631 -1.040000
v 1.040000 0.176631 -0.912188
v -0.979991 -0.194170 -0.995303
v -0.995675 -0.190541 -0.995675
v 1.040000 0.176631 -0.812188
v -1.006311 -0.183566 -0.994936
v 1.040000 0.163952 0.939377
v -1.016917 -0.157247 -0.995303
v 1.040000 0.163952 0.839378
v -1.008273 -0.157253 -1.008273
v 0.839377 0.163952 -1.040000
v -0.912188 0.176631 -1.040000
v -1.016914 -0.172559 -0.979991
v 0.939377 0.163952 -1.040000
v -1.013285 -0.172931 -0.995675
v -0.787812 0.053369 -1.040000
v -1.006311 -0.172192 -1.006311
v -1.020047 0.262946 -0.980010
v -0.887812 0.053369 -1.040000
v 0.760622 0.066048 -1.040000
v -0.980009 0.302919 -0.980009
v 1.040000 0.053369 -0.887812
v -0.980010 0.262946 -1.020047
v -1.000026 0.077774 1.040000
v -1.016914 0.278238 -0.979991
v -1.008273 0.291208 -0.979997
v 1.040000 0.066048 0.760623
v -1.016917 0.262927 -0.995303
v 1.040000 0.053369 -0.787812
v 0.860622 0.066048 -1.040000
v -1.013285 0.278610 -0.995675
v 1.040000 0.066048 0.860622
v -1.006311 0.289246 -0.994936
v 1.040000 0.163952 -0.839378
v -1.003009 0.285944 -1.003009
v -0.979991 0.299849 -0.995303
v 1.040000 0.163952 -0.939377
v -0.839378 0.163952 -1.040000
v -0.979997 0.291208 -1.008273
v -0.995303 0.299849 -0.979991
v -0.939377 0.163952 -1.040000
v -1.036957 0.077774 1.015323
v -0.995675 0.296221 -0.995675
v -0.994936 0.289246 -1.006311
v 1.040000 0.176631 0.912188
v -0.995303 0.262927 -1.016917
v 1.040000 0.176631 0.812188
v 0.912188 0.176631 -1.040000
v -1.008273 0.262932 -1.008273
v -0.979991 0.278238 -1.016914
v 0.812188 0.176631 -1.040000
v -0.995675 0.278610 -1.013285
v -1.028292 0.077774 1.028292
v -1.006311 0.277871 -1.006311
v -1.015323 0.077774 1.036957
v -1.020047 -0.157266 0.980010
v -1.040000 0.042774 -0.999966
v -0.999966 0.042774 -1.040000
v -0.980011 -0.197306 0.980011
v -0.980010 -0.157266 1.020047
v -1.036953 0.042774 -1.015286
v -1.016914 -0.172559 0.979991
v -1.028274 0.042774 -1.028274
v -1.015286 0.042774 -1.036953
v -1.008273 -0.185528 0.979997
v -0.999966 0.077774 -1.040000
v -1.016917 -0.157247 0.995303
v -1.013285 -0.172931 0.995675
v -1.040000 0.077774 -0.999966
v -1.006311 -0.183566 0.994936
v -1.015286 0.077774 -1.036953
v -1.003009 -0.180265 1.003009
v -1.028274 0.077774 -1.028274
v -1.036953 0.077774 -1.015286
v -0.979991 -0.194170 0.995303
v -0.979997 -0.185528 1.008273
v 1.000007 0.042774 -1.040000
v -0.995303 -0.194170 0.979991
v 1.040000 0.042774 -1.000007
v -0.995675 -0.190541 0.995675
v 1.015312 0.042774 -1.036956
v -0.994936 -0.183566 1.006311
v 1.028286 0.042774 -1.028286
v 1.036956 0.042774 -1.015312
v -0.995303 -0.157247 1.016917
v -1.008273 -0.157253 1.008273
v 1.040000 0.077774 -1.000007
v 1.000007 0.077774 -1.040000
v -0.979991 -0.172559 1.016914
v -0.995675 -0.172931 1.013285
v 1.036956 0.077774 -1.015312
v -1.006311 -0.172192 1.006311
v 1.028286 0.077774 -1.028286
v -0.980011 0.303021 0.980011
v 1.015312 0.077774 -1.036956
v -1.020047 0.262946 0.980010
v 1.040000 0.042774 0.999973
v -0.980010 0.262946 1.020047
v 0.999973 0.042774 1.040000
v 1.036953 0.042774 1.015291
v -0.995303 0.299850 0.979991
v -1.008273 0.291208 0.979997
v 1.028277 0.042774 1.028277
v -0.979991 0.299850 0.995303
v 1.015291 0.042774 1.036953
v 0.999973 0.077774 1.040000
v -0.995675 0.296221 0.995675
v -1.006311 0.289246 0.994936
v 1.040000 0.077774 0.999973
v -1.003009 0.285944 1.003009
v 1.015291 0.077774 1.036953
v 1.028277 0.077774 1.028277
v -1.016917 0.262927 0.995303
v 1.036953 0.077774 1.015291
v -1.008273 0.262932 1.008273
v -1.016914 0.278238 0.979991
v -0.899192 0.077774 -1.040000
v -0.892638 0.077774 -1.040000
v -1.013285 0.278610 0.995675
v -1.006311 0.277871 1.006311
v -0.866091 0.077774 -1.040000
v -0.979991 0.278238 1.016914
v -0.792638 0.077774 -1.040000
v -0.799192 0.077774 -1.040000
v -0.979997 0.291208 1.008273
v -0.995304 0.262927 1.016917
v -0.766091 0.077774 -1.040000
v -0.995675 0.278610 1.013285
v 0.766091 0.077774 -1.040000
v 0.799192 0.077774 -1.040000
v -0.994936 0.289246 1.006311
v 0.866090 0.077774 -1.040000
v 0.899192 0.077774 -1.040000
v -1.040000 0.077774 -0.899192
v -1.040000 0.077774 0.899192
v -1.040000 0.077774 0.892638
v -1.040000 0.077774 0.866091
v -1.040000 0.077774 0.799192
v -1.040000 0.077774 0.792638
v -1.040000 0.077774 0.766091
v -1.040000 0.077774 -0.766091
v -1.040000 0.077774 -0.799192
v -1.040000 0.077774 -0.866091
v -0.899192 0.077774 1.040000
v -0.799192 0.077774 1.040000
v -0.766091 0.077774 1.040000
v -0.866091 0.077774 1.040000
v 0.766091 0.077774 1.040000
v 0.792638 0.077774 1.040000
v 0.799192 0.077774 1.040000
v 0.866091 0.077774 1.040000
v 0.899192 0.077774 1.040000
v 0.892638 0.077774 1.040000
v 1.040000 0.077774 0.899192
v 1.040000 0.077774 0.866091
v 1.040000 0.077774 0.799192
v 1.040000 0.077774 0.766091
v 1.040000 0.077774 -0.766091
v 1.040000 0.077774 -0.792638
v 1.040000 0.077774 -0.799192
v 1.040000 0.077774 -0.866091
v 1.040000 0.077774 -0.892638
v 1.040000 0.077774 -0.899192
v 1.040000 0.075995 -0.898363
v 1.040000 0.074231 -0.797540
v -1.040000 0.074231 0.797540
v -1.040000 0.075995 0.898362
v 0.898363 0.075996 1.040000
v 0.797540 0.074232 1.040000
v -0.797540 0.074232 -1.040000
v -0.898363 0.075996 -1.040000
v -0.892265 0.075889 -1.040000
v -0.791918 0.074133 -1.040000
v 1.040000 0.075889 -0.892265
v 1.040000 0.074133 -0.791918
v -1.040000 0.075888 0.892265
v -1.040000 0.074132 0.791918
v 0.892265 0.075889 1.040000
v 0.791918 0.074133 1.040000
v -1.040000 0.152500 -0.834037
v -1.040000 0.155381 -0.835381
v -1.040000 0.152500 -0.800936
v -1.040000 0.152500 -0.934037
v -1.040000 0.153646 -0.934571
v -1.040000 0.152500 -0.900936
v 1.040000 0.152500 -0.934037
v 1.040000 0.152500 -0.900936
v 1.040000 0.152500 -0.834037
v 1.040000 0.152500 -0.800936
v -1.040000 0.152500 0.800936
v -1.040000 0.152500 0.834037
v -1.040000 0.152500 0.900936
v -1.040000 0.152500 0.934037
v 1.040000 0.152500 0.900936
v 1.040000 0.152500 0.934037
v 1.040000 0.153645 0.934571
v 1.040000 0.152500 0.800936
v 1.040000 0.152500 0.834037
v 1.040000 0.155381 0.835381
v 0.800936 0.152500 -1.040000
v 0.834037 0.152500 -1.040000
v 0.835380 0.155381 -1.040000
v 0.900936 0.152500 -1.040000
v 0.934037 0.152500 -1.040000
v 0.934571 0.153645 -1.040000
v 0.900936 0.152500 1.040000
v 0.934037 0.152500 1.040000
v 0.800936 0.152500 1.040000
v 0.834037 0.152500 1.040000
v -0.834037 0.152500 -1.040000
v -0.800936 0.152500 -1.040000
v -0.934037 0.152500 -1.040000
v -0.900936 0.152500 -1.040000
v -0.934037 0.152500 1.040000
v -0.934571 0.153645 1.040000
v -0.900936 0.152500 1.040000
v -0.834037 0.152500 1.040000
v -0.835380 0.155381 1.040000
v -0.800936 0.152500 1.040000
v 0.829638 0.152500 -1.040000
v 0.929638 0.152500 -1.040000
v 1.040000 0.152500 0.929638
v 1.040000 0.152500 0.829638
v -0.929638 0.152500 1.040000
v -0.829638 0.152500 1.040000
v -1.040000 0.152500 -0.929638
v -1.040000 0.152500 -0.829638
v 0.832136 0.155437 -1.040000
v 0.930670 0.153713 -1.040000
v -0.930670 0.153713 1.040000
v -0.832136 0.155438 1.040000
v 1.040000 0.155438 0.832137
v 1.040000 0.153714 0.930670
v -1.040000 0.155438 -0.832137
v -1.040000 0.153714 -0.930671
v 0.980000 0.042774 -1.020000
v 0.980000 0.077774 -1.020000
v 0.980000 0.152500 -1.020000
v 0.980000 0.187500 -1.020000
v 0.995307 0.042774 -1.016955
v 0.995307 0.077774 -1.016955
v 0.995307 0.152500 -1.016955
v 0.995307 0.187500 -1.016955
v 1.008284 0.042774 -1.008284
v 1.008284 0.077774 -1.008284
v 1.008284 0.152500 -1.008284
v 1.008284 0.187500 -1.008284
v 1.016955 0.042774 -0.995307
v 1.016955 0.077774 -0.995307
v 1.016955 0.152500 -0.995307
v 1.016955 0.187500 -0.995307
v 1.020000 0.042774 -0.980000
v 1.020000 0.077774 -0.980000
v 1.020000 0.152500 -0.980000
v 1.020000 0.187500 -0.980000
v -1.020000 0.042774 0.980000
v -1.020000 0.077774 0.980000
v -1.020000 0.152500 0.980000
v -1.020000 0.187500 0.980000
v -1.016955 0.042774 0.995307
v -1.016955 0.077774 0.995307
v -1.016955 0.152500 0.995307
v -1.016955 0.187500 0.995307
v -1.008284 0.042774 1.008284
v -1.008284 0.077774 1.008284
v -1.008284 0.152500 1.008284
v -1.008284 0.187500 1.008284
v -0.995307 0.042774 1.016955
v -0.995307 0.077774 1.016955
v -0.995307 0.152500 1.016955
v -0.995307 0.187500 1.016955
v -0.980000 0.042774 1.020000
v -0.980000 0.077774 1.020000
v -0.980000 0.152500 1.020000
v -0.980000 0.187500 1.020000
v 1.020000 0.152500 0.980000
v 1.020000 0.187500 0.980000
v 1.020000 0.042774 0.980000
v 1.020000 0.077774 0.980000
v 1.016955 0.042774 0.995307
v 1.016955 0.077774 0.995307
v 1.016955 0.152500 0.995307
v 1.016955 0.187500 0.995307
v 1.008284 0.042774 1.008284
v 1.008284 0.077774 1.008284
v 1.008284 0.152500 1.008284
v 1.008284 0.187500 1.008284
v 0.995307 0.042774 1.016955
v 0.995307 0.077774 1.016955
v 0.995307 0.152500 1.016955
v 0.995307 0.187500 1.016955
v 0.980000 0.042774 1.020000
v 0.980000 0.077774 1.020000
v 0.980000 0.152500 1.020000
v 0.980000 0.187500 1.020000
v -1.020000 0.042774 -0.980000
v -1.020000 0.077774 -0.980000
v -1.020000 0.152500 -0.980000
v -1.020000 0.187500 -0.980000
v -1.016955 0.042774 -0.995307
v -1.016955 0.077774 -0.995307
v -1.016955 0.152500 -0.995307
v -1.016955 0.187500 -0.995307
v -1.008284 0.042774 -1.008284
v -1.008284 0.077774 -1.008284
v -1.008284 0.152500 -1.008284
v -1.008284 0.187500 -1.008284
v -0.995307 0.042774 -1.016955
v -0.995307 0.077774 -1.016955
v -0.995307 0.152500 -1.016955
v -0.995307 0.187500 -1.016955
v -0.980000 0.042774 -1.020000
v -0.980000 0.077774 -1.020000
v -0.980000 0.152500 -1.020000
v -0.980000 0.187500 -1.020000
v 0.766091 0.077774 -1.020000
v 0.900936 0.152500 -1.020000
v 0.799192 0.077774 -1.020000
v 0.800936 0.152500 -1.020000
v 0.834037 0.152500 -1.020000
v 0.934037 0.152500 -1.020000
v 0.866090 0.077774 -1.020000
v 0.899192 0.077774 -1.020000
v -0.866091 0.077774 -1.020000
v -0.899192 0.077774 -1.020000
v -0.900936 0.152500 -1.020000
v -0.934037 0.152500 -1.020000
v -0.799192 0.077774 -1.020000
v -0.800936 0.152500 -1.020000
v -0.834037 0.152500 -1.020000
v -0.766091 0.077774 -1.020000
v 1.020000 0.152500 0.934037
v 1.020000 0.152500 0.900936
v 1.020000 0.077774 0.899192
v 1.020000 0.077774 0.766091
v 1.020000 0.077774 0.799192
v 1.020000 0.152500 0.800936
v 1.020000 0.152500 0.834037
v 1.020000 0.077774 0.866091
v 1.020000 0.077774 -0.766091
v 1.020000 0.152500 -0.834037
v 1.020000 0.077774 -0.799192
v 1.020000 0.152500 -0.800936
v 1.020000 0.077774 -0.866091
v 1.020000 0.077774 -0.899192
v 1.020000 0.152500 -0.900936
v 1.020000 0.152500 -0.934037
v -0.900936 0.152500 1.020000
v -0.934037 0.152500 1.020000
v -0.899192 0.077774 1.020000
v -0.866091 0.077774 1.020000
v -0.766091 0.077774 1.020000
v -0.799192 0.077774 1.020000
v -0.800936 0.152500 1.020000
v -0.834037 0.152500 1.020000
v 0.866091 0.077774 1.020000
v 0.799192 0.077774 1.020000
v 0.800936 0.152500 1.020000
v 0.834037 0.152500 1.020000
v 0.766091 0.077774 1.020000
v 0.900936 0.152500 1.020000
v 0.934037 0.152500 1.020000
v 0.899192 0.077774 1.020000
v -1.020000 0.077774 -0.766091
v -1.020000 0.152500 -0.900936
v -1.020000 0.152500 -0.834037
v -1.020000 0.077774 -0.799192
v -1.020000 0.152500 -0.800936
v -1.020000 0.077774 -0.866091
v -1.020000 0.077774 -0.899192
v -1.020000 0.152500 -0.934037
v -1.020000 0.152500 0.934037
v -1.020000 0.152500 0.900936
v -1.020000 0.077774 0.899192
v -1.020000 0.077774 0.866091
v -1.020000 0.077774 0.766091
v -1.020000 0.077774 0.799192
v -1.020000 0.152500 0.800936
v -1.020000 0.152500 0.834037
v 0.980000 -0.115694 -1.020000
v 0.980000 -0.057005 -1.020000
v 0.995307 -0.115694 -1.016955
v 0.995307 -0.057005 -1.016955
v 1.008284 -0.115694 -1.008284
v 1.008284 -0.057005 -1.008284
v 1.016955 -0.115694 -0.995307
v 1.016955 -0.057005 -0.995307
v 1.020000 -0.115694 -0.980000
v 1.020000 -0.057005 -0.980000
v -1.016955 -0.115694 0.995307
v -1.016955 -0.057005 0.995307
v -1.020000 -0.115694 0.980000
v -1.020000 -0.057005 0.980000
v -1.008284 -0.115694 1.008284
v -1.008284 -0.057005 1.008284
v -0.995307 -0.115694 1.016955
v -0.995307 -0.057005 1.016955
v -0.980000 -0.115694 1.020000
v -0.980000 -0.057005 1.020000
v 1.016955 -0.115694 0.995307
v 1.016955 -0.057005 0.995307
v 1.020000 -0.115694 0.980000
v 1.020000 -0.057005 0.980000
v 1.008284 -0.115694 1.008284
v 1.008284 -0.057005 1.008284
v 0.995307 -0.115694 1.016955
v 0.995307 -0.057005 1.016955
v 0.980000 -0.115694 1.020000
v 0.980000 -0.057005 1.020000
v -1.020000 -0.115694 -0.980000
v -1.020000 -0.057005 -0.980000
v -1.016955 -0.115694 -0.995307
v -1.016955 -0.057005 -0.995307
v -1.008284 -0.115694 -1.008284
v -1.008284 -0.057005 -1.008284
v -0.995307 -0.115694 -1.016955
v -0.995307 -0.057005 -1.016955
v -0.980000 -0.115694 -1.020000
v -0.980000 -0.057005 -1.020000
v -0.909620 0.302903 -0.749490
v -0.909620 0.302978 0.749490
v 0.749490 0.302903 0.909620
v 0.829555 0.302854 0.829555
v -0.829555 0.302854 -0.829555
v -0.749490 0.302978 0.909620
v -0.749490 0.302903 -0.909620
v 0.909620 0.302978 -0.749490
v 0.909620 0.302903 0.749490
v 0.749490 0.302978 -0.909620
vn 0.1968 -0.1970 -0.9605
vn 0.5459 -0.1767 -0.8190
vn 0.1766 -0.5457 -0.8191
vn 0.4951 -0.5003 -0.7104
vn 0.9604 -0.1970 -0.1968
vn 0.8191 -0.5457 -0.1766
vn 0.8190 -0.1767 -0.5458
vn 0.7104 -0.4951 -0.5003
vn 0.1972 -0.9603 -0.1972
vn 0.1766 -0.8191 -0.5457
vn 0.5457 -0.8192 -0.1766
vn 0.5003 -0.7104 -0.4951
vn 0.1992 0.9595 -0.1992
vn 0.5457 0.8191 -0.1766
vn 0.1766 0.8191 -0.5457
vn 0.4951 0.7104 -0.5003
vn 0.9604 0.1970 -0.1968
vn 0.8190 0.1767 -0.5458
vn 0.8191 0.5457 -0.1766
vn 0.7104 0.5002 -0.4951
vn 0.1968 0.1970 -0.9604
vn 0.1766 0.5457 -0.8192
vn 0.5459 0.1767 -0.8190
vn 0.5003 0.4951 -0.7104
vn 0.9604 -0.1970 0.1968
vn 0.8190 -0.1767 0.5458
vn 0.8191 -0.5457 0.1766
vn 0.7104 -0.5003 0.4951
vn 0.1968 -0.1970 0.9604
vn 0.1766 -0.5457 0.8191
vn 0.5459 -0.1767 0.8190
vn 0.5003 -0.4951 0.7104
vn 0.1972 -0.9603 0.1972
vn 0.5457 -0.8192 0.1766
vn 0.1766 -0.8191 0.5457
vn 0.4951 -0.7104 0.5003
vn 0.9604 0.1970 0.1968
vn 0.8191 0.5457 0.1766
vn 0.8190 0.1767 0.5458
vn 0.7104 0.4951 0.5003
vn 0.1933 0.9619 0.1933
vn 0.1765 0.8192 0.5457
vn 0.5457 0.8192 0.1765
vn 0.5003 0.7104 0.4951
vn 0.1968 0.1970 0.9604
vn 0.5458 0.1767 0.8190
vn 0.1766 0.5457 0.8191
vn 0.4951 0.5003 0.7104
vn -0.1968 -0.1970 -0.9604
vn -0.1766 -0.5457 -0.8191
vn -0.5458 -0.1767 -0.8190
vn -0.5003 -0.4951 -0.7104
vn -0.1972 -0.9603 -0.1972
vn -0.5457 -0.8192 -0.1766
vn -0.1766 -0.8191 -0.5457
vn -0.4951 -0.7104 -0.5003
vn -0.9605 -0.1970 -0.1968
vn -0.8190 -0.1767 -0.5459
vn -0.8191 -0.5457 -0.1766
vn -0.7104 -0.5003 -0.4951
vn -0.9604 0.1970 -0.1968
vn -0.8191 0.5457 -0.1766
vn -0.8190 0.1767 -0.5458
vn -0.7104 0.4951 -0.5003
vn -0.1933 0.9619 -0.1933
vn -0.1765 0.8192 -0.5457
vn -0.5457 0.8192 -0.1765
vn -0.5003 0.7104 -0.4951
vn -0.1968 0.1970 -0.9604
vn -0.5458 0.1767 -0.8190
vn -0.1766 0.5457 -0.8191
vn -0.4951 0.5003 -0.7104
vn -0.9604 -0.1970 0.1968
vn -0.8191 -0.5457 0.1766
vn -0.8190 -0.1767 0.5459
vn -0.7104 -0.4951 0.5003
vn -0.1972 -0.9603 0.1972
vn -0.1766 -0.8191 0.5457
vn -0.5457 -0.8192 0.1766
vn -0.5003 -0.7104 0.4951
vn -0.1968 -0.1970 0.9604
vn -0.5459 -0.1767 0.8190
vn -0.1766 -0.5457 0.8191
vn -0.4951 -0.5003 0.7104
vn -0.1992 0.9595 0.1992
vn -0.5457 0.8191 0.1766
vn -0.1766 0.8191 0.5457
vn -0.4951 0.7104 0.5003
vn -0.9605 0.1970 0.1968
vn -0.8190 0.1767 0.5459
vn -0.8191 0.5457 0.1766
vn -0.7104 0.5002 0.4951
vn -0.1968 0.1970 0.9604
vn -0.1766 0.5457 0.8192
vn -0.5459 0.1767 0.8190
vn -0.5003 0.4951 0.7104
vn -0.9797 0.2007 -0.0000
vn -0.8322 0.5545 -0.0000
vn -0.5545 0.8322 -0.0000
vn -0.1968 0.9804 -0.0000
vn -0.0000 0.2007 -0.9797
vn -0.0000 0.5545 -0.8322
vn -0.0000 0.8322 -0.5545
vn -0.0001 0.9792 -0.2030
vn 0.2005 -0.0006 -0.9797
vn 0.1951 -0.0000 -0.9808
vn 0.1951 -0.0009 -0.9808
vn 0.5556 0.0004 -0.8315
vn 0.5556 -0.0000 -0.8315
vn 0.5546 -0.0004 -0.8321
vn 0.8315 0.0004 -0.5556
vn 0.8315 -0.0008 -0.5556
vn 0.8315 -0.0000 -0.5556
vn 0.9808 0.0005 -0.1951
vn 0.9808 -0.0009 -0.1951
vn 0.9808 -0.0000 -0.1951
vn -0.9808 -0.0000 0.1951
vn -0.9797 0.0012 0.2005
vn -0.9808 0.0005 0.1951
vn -0.8315 -0.0000 0.5556
vn -0.8315 -0.0008 0.5556
vn -0.8315 0.0004 0.5556
vn -0.5556 -0.0008 0.8315
vn -0.5556 -0.0000 0.8315
vn -0.5556 0.0004 0.8315
vn -0.1951 -0.0009 0.9808
vn -0.1951 -0.0000 0.9808
vn -0.1951 0.0005 0.9808
vn 0.9808 0.0005 0.1951
vn 0.9808 -0.0009 0.1951
vn 0.9808 -0.0000 0.1951
vn 0.8315 -0.0000 0.5556
vn 0.8315 0.0004 0.5556
vn 0.8315 -0.0008 0.5556
vn 0.5556 0.0004 0.8315
vn 0.5556 -0.0008 0.8315
vn 0.5556 -0.0000 0.8315
vn 0.1951 0.0005 0.9808
vn 0.1951 -0.0009 0.9808
vn 0.1951 -0.0000 0.9808
vn -0.9808 0.0005 -0.1951
vn -0.9808 -0.0000 -0.1951
vn -0.9808 -0.0009 -0.1951
vn -0.8315 -0.0000 -0.5556
vn -0.8315 0.0004 -0.5556
vn -0.8321 -0.0004 -0.5546
vn -0.5546 0.0002 -0.8321
vn -0.5556 -0.0000 -0.8315
vn -0.5556 -0.0008 -0.8315
vn -0.1951 0.0005 -0.9808
vn -0.2005 0.0012 -0.9797
vn -0.1951 -0.0000 -0.9808
vn -0.0000 -0.2007 0.9797
vn -0.0000 -0.5545 0.8322
vn -0.0000 -0.8322 0.5545
vn -0.0000 -0.9796 0.2009
vn 0.9797 -0.2007 -0.0000
vn 0.8322 -0.5545 -0.0000
vn 0.5545 -0.8322 -0.0000
vn 0.2009 -0.9796 -0.0000
vn -0.0000 0.2007 0.9797
vn -0.0000 0.5545 0.8322
vn -0.0000 0.8322 0.5545
vn 0.0001 0.9792 0.2030
vn -0.9797 -0.2007 -0.0000
vn -0.8322 -0.5545 -0.0000
vn -0.5545 -0.8322 -0.0000
vn -0.2009 -0.9796 -0.0000
vn -0.0000 -0.2007 -0.9797
vn -0.0000 -0.5545 -0.8322
vn -0.0000 -0.8322 -0.5545
vn -0.0000 -0.9796 -0.2009
vn 0.9797 0.2007 -0.0000
vn 0.8322 0.5545 -0.0000
vn 0.5545 0.8322 -0.0000
vn 0.1968 0.9804 -0.0000
vn -0.0000 -0.0000 -1.0000
vn -0.0000 0.0011 -1.0000
vn -0.0000 -0.0006 -1.0000
vn 1.0000 -0.0000 -0.0000
vn 1.0000 0.0011 -0.0000
vn 1.0000 -0.0006 -0.0000
vn -0.0000 -1.0000 -0.0000
vn 0.0001 1.0000 -0.0001
vn -0.0001 1.0000 0.0001
vn -0.0000 -0.0000 1.0000
vn -0.0000 0.0011 1.0000
vn -0.0000 -0.0006 1.0000
vn -1.0000 -0.0000 -0.0000
vn -1.0000 0.0011 -0.0000
vn -1.0000 -0.0006 -0.0000
vn -0.0000 1.0000 -0.0000
vn -0.0000 -0.4226 -0.9063
vn -0.0000 0.4226 0.9063
vn -0.0000 0.4226 -0.9063
vn -0.0000 -0.4226 0.9063
vn 1.0000 -0.0000 0.0001
vn -0.9063 0.4226 -0.0000
vn 0.9063 -0.4226 -0.0000
vn -0.9063 -0.4226 -0.0000
vn 0.9063 0.4226 -0.0000
vn 0.7071 -0.0000 -0.7071
vn 0.7071 -0.0000 0.7071
vn -0.7071 -0.0000 0.7071
vn -0.7071 -0.0000 -0.7071
vn 0.2153 -0.2155 -0.9525
vn 0.5482 -0.1793 -0.8169
vn 0.1793 -0.5482 -0.8169
vn 0.5003 -0.4951 -0.7104
vn 0.9525 -0.2155 -0.2153
vn 0.8169 -0.5482 -0.1793
vn 0.8169 -0.1793 -0.5482
vn 0.7104 -0.5003 -0.4951
vn 0.2153 -0.9525 -0.2153
vn 0.1793 -0.8169 -0.5482
vn 0.5482 -0.8169 -0.1793
vn 0.4951 -0.7104 -0.5003
vn 0.2153 0.9525 -0.2153
vn 0.5482 0.8169 -0.1793
vn 0.1793 0.8169 -0.5482
vn 0.5003 0.7104 -0.4951
vn 0.9525 0.2155 -0.2153
vn 0.8169 0.1793 -0.5482
vn 0.8169 0.5482 -0.1793
vn 0.7104 0.4951 -0.5003
vn 0.2153 0.2155 -0.9525
vn 0.1793 0.5482 -0.8169
vn 0.5482 0.1793 -0.8169
vn 0.4951 0.5003 -0.7104
vn 0.9525 -0.2155 0.2153
vn 0.8169 -0.1793 0.5482
vn 0.8169 -0.5482 0.1793
vn 0.7104 -0.4951 0.5003
vn 0.2153 -0.2155 0.9525
vn 0.1793 -0.5482 0.8169
vn 0.5482 -0.1793 0.8169
vn 0.4951 -0.5002 0.7104
vn 0.2153 -0.9525 0.2153
vn 0.5482 -0.8169 0.1793
vn 0.1793 -0.8169 0.5482
vn 0.5003 -0.7104 0.4951
vn 0.9525 0.2155 0.2153
vn 0.8169 0.5482 0.1793
vn 0.8169 0.1793 0.5482
vn 0.7104 0.5003 0.4951
vn 0.2152 0.9526 0.2152
vn 0.1793 0.8169 0.5482
vn 0.5482 0.8169 0.1793
vn 0.4951 0.7103 0.5003
vn 0.2153 0.2155 0.9525
vn 0.5482 0.1793 0.8169
vn 0.1793 0.5482 0.8169
vn 0.5003 0.4951 0.7104
vn -0.2153 -0.2155 -0.9525
vn -0.1793 -0.5482 -0.8169
vn -0.5482 -0.1793 -0.8169
vn -0.4951 -0.5002 -0.7104
vn -0.2153 -0.9525 -0.2153
vn -0.5482 -0.8169 -0.1793
vn -0.1793 -0.8169 -0.5482
vn -0.5003 -0.7104 -0.4951
vn -0.9525 -0.2155 -0.2153
vn -0.8169 -0.1793 -0.5482
vn -0.8169 -0.5482 -0.1793
vn -0.7104 -0.4951 -0.5003
vn -0.9525 0.2155 -0.2153
vn -0.8169 0.5482 -0.1793
vn -0.8169 0.1793 -0.5482
vn -0.7104 0.5003 -0.4951
vn -0.2152 0.9526 -0.2152
vn -0.1793 0.8169 -0.5482
vn -0.5482 0.8169 -0.1793
vn -0.4951 0.7103 -0.5003
vn -0.2153 0.2155 -0.9525
vn -0.5482 0.1793 -0.8169
vn -0.1793 0.5482 -0.8169
vn -0.5003 0.4951 -0.7104
vn -0.9525 -0.2155 0.2153
vn -0.8169 -0.5482 0.1793
vn -0.8169 -0.1793 0.5482
vn -0.7104 -0.5003 0.4951
vn -0.2153 -0.9525 0.2153
vn -0.1793 -0.8169 0.5482
vn -0.5482 -0.8169 0.1793
vn -0.4951 -0.7104 0.5003
vn -0.2153 -0.2155 0.9525
vn -0.5482 -0.1793 0.8169
vn -0.1793 -0.5482 0.8169
vn -0.5003 -0.4951 0.7104
vn -0.2153 0.9525 0.2153
vn -0.5482 0.8169 0.1793
vn -0.1793 0.8169 0.5482
vn -0.5003 0.7104 0.4951
vn -0.9525 0.2155 0.2153
vn -0.8169 0.1793 0.5482
vn -0.8169 0.5482 0.1793
vn -0.7104 0.4951 0.5003
vn -0.2153 0.2155 0.9525
vn -0.1793 0.5482 0.8169
vn -0.5482 0.1793 0.8169
vn -0.4951 0.5003 0.7104
vn -0.2030 0.9792 -0.0001
vn -0.0000 0.9804 -0.1968
vn 0.1951 0.0005 -0.9808
vn 0.2005 0.0012 -0.9797
vn 0.5546 0.0002 -0.8321
vn 0.5556 -0.0008 -0.8315
vn 0.8321 0.0002 -0.5546
vn 0.8321 -0.0004 -0.5546
vn 0.9797 -0.0006 -0.2005
vn 0.9797 0.0012 -0.2005
vn -0.9808 -0.0009 0.1951
vn -0.9797 -0.0006 0.2005
vn -0.8321 -0.0004 0.5546
vn -0.8321 0.0002 0.5546
vn -0.5546 -0.0004 0.8321
vn -0.5546 0.0002 0.8321
vn -0.2005 0.0012 0.9797
vn -0.2005 -0.0006 0.9797
vn 0.9797 -0.0006 0.2005
vn 0.9797 0.0012 0.2005
vn 0.8321 0.0002 0.5546
vn 0.8321 -0.0004 0.5546
vn 0.5546 0.0002 0.8321
vn 0.5546 -0.0004 0.8321
vn 0.2005 -0.0006 0.9797
vn 0.2005 0.0012 0.9797
vn -0.9797 -0.0006 -0.2005
vn -0.9797 0.0012 -0.2005
vn -0.8321 0.0002 -0.5546
vn -0.8315 -0.0008 -0.5556
vn -0.5556 0.0004 -0.8315
vn -0.5546 -0.0004 -0.8321
vn -0.2005 -0.0006 -0.9797
vn -0.1951 -0.0009 -0.9808
vn -0.0000 0.9804 0.1968
vn 0.2030 0.9792 0.0001
vn 0.0001 1.0000 -0.0005
vn 0.0001 1.0000 -0.0004
vn 0.0005 1.0000 -0.0001
vn 0.0004 1.0000 -0.0001
vn -0.0005 1.0000 0.0001
vn -0.0001 1.0000 0.0005
vn -0.0001 1.0000 0.0004
vn -0.0004 1.0000 0.0001
vn -0.0000 -0.0001 -1.0000
vn -0.0000 0.0001 -1.0000
vn -0.0000 -0.0001 1.0000
vn -0.0000 0.0001 1.0000
s 0
usemtl Material
f 10//1 19//1 2//1
f 13//2 27//2 10//2
f 27//3 48//3 19//3
f 27//4 34//4 53//4
f 35//5 39//5 4//5
f 37//6 41//6 35//6
f 41//7 13//7 39//7
f 41//8 34//8 32//8
f 45//9 50//9 7//9
f 48//10 52//10 45//10
f 52//11 37//11 50//11
f 52//12 34//12 43//12
f 61//13 65//13 55//13
f 64//14 67//14 61//14
f 67//15 85//15 65//15
f 67//16 72//16 91//16
f 73//17 78//17 58//17
f 76//18 79//18 73//18
f 79//19 64//19 78//19
f 79//20 72//20 70//20
f 83//21 88//21 60//21
f 85//22 90//22 83//22
f 90//23 76//23 88//23
f 90//24 72//24 82//24
f 100//25 104//25 94//25
f 102//26 106//26 100//26
f 106//27 124//27 104//27
f 106//28 110//28 130//28
f 111//29 115//29 95//29
f 114//30 117//30 111//30
f 117//31 102//31 115//31
f 117//32 110//32 108//32
f 122//33 125//33 97//33
f 124//34 127//34 122//34
f 127//35 114//35 125//35
f 127//36 110//36 120//36
f 137//37 141//37 132//37
f 139//38 144//38 137//38
f 144//39 161//39 141//39
f 144//40 148//40 167//40
f 150//41 154//41 134//41
f 152//42 156//42 150//42
f 156//43 139//43 154//43
f 156//44 148//44 145//44
f 159//45 163//45 136//45
f 161//46 165//46 159//46
f 165//47 152//47 163//47
f 165//48 148//48 157//48
f 175//49 179//49 169//49
f 177//50 181//50 175//50
f 181//51 199//51 179//51
f 181//52 186//52 206//52
f 188//53 192//53 172//53
f 189//54 193//54 188//54
f 193//55 177//55 192//55
f 193//56 186//56 183//56
f 197//57 202//57 174//57
f 199//58 204//58 197//58
f 204//59 189//59 202//59
f 204//60 186//60 195//60
f 214//61 217//61 207//61
f 215//62 220//62 214//62
f 220//63 238//63 217//63
f 220//64 224//64 243//64
f 225//65 229//65 210//65
f 228//66 232//66 225//66
f 232//67 215//67 229//67
f 232//68 224//68 222//68
f 235//69 239//69 212//69
f 238//70 241//70 235//70
f 241//71 228//71 239//71
f 241//72 224//72 233//72
f 251//73 256//73 245//73
f 254//74 257//74 251//74
f 257//75 275//75 256//75
f 257//76 261//76 281//76
f 264//77 267//77 248//77
f 265//78 269//78 264//78
f 269//79 254//79 267//79
f 269//80 261//80 259//80
f 274//81 278//81 249//81
f 275//82 279//82 274//82
f 279//83 265//83 278//83
f 279//84 261//84 271//84
f 290//85 293//85 283//85
f 291//86 296//86 290//86
f 296//87 314//87 293//87
f 296//88 299//88 320//88
f 302//89 305//89 285//89
f 304//90 308//90 302//90
f 308//91 291//91 305//91
f 308//92 299//92 297//92
f 311//93 315//93 287//93
f 314//94 317//94 311//94
f 317//95 304//95 315//95
f 317//96 299//96 309//96
f 285//97 214//97 207//97
f 305//98 215//98 214//98
f 291//99 229//99 215//99
f 290//100 210//100 229//100
f 212//101 83//101 60//101
f 239//102 85//102 83//102
f 85//103 225//103 65//103
f 65//104 210//104 55//104
f 88//105 428//105 60//105
f 425//106 572//106 570//106
f 10//107 569//107 571//107
f 430//106 427//106 431//106
f 88//108 436//108 432//108
f 429//109 574//109 572//109
f 10//110 573//110 13//110
f 430//109 435//109 434//109
f 436//111 73//111 440//111
f 39//112 573//112 575//112
f 433//113 576//113 574//113
f 435//113 438//113 434//113
f 73//114 444//114 440//114
f 577//115 39//115 575//115
f 437//116 578//116 576//116
f 439//116 442//116 438//116
f 449//117 582//117 580//117
f 256//118 581//118 245//118
f 450//117 447//117 446//117
f 302//119 448//119 452//119
f 454//120 451//120 450//120
f 453//120 580//120 584//120
f 256//121 583//121 579//121
f 456//122 302//122 452//122
f 583//123 274//123 585//123
f 457//124 584//124 586//124
f 454//124 459//124 455//124
f 315//125 456//125 460//125
f 274//126 587//126 585//126
f 461//127 586//127 588//127
f 458//127 463//127 459//127
f 464//128 315//128 460//128
f 466//129 141//129 472//129
f 100//130 591//130 589//130
f 467//131 590//131 592//131
f 465//131 470//131 468//131
f 471//132 474//132 470//132
f 141//133 476//133 472//133
f 593//134 100//134 589//134
f 469//132 594//132 590//132
f 476//135 159//135 480//135
f 115//136 593//136 595//136
f 473//137 596//137 594//137
f 478//137 475//137 479//137
f 159//138 484//138 480//138
f 597//139 115//139 595//139
f 477//140 598//140 596//140
f 479//140 482//140 478//140
f 488//141 217//141 492//141
f 485//142 602//142 600//142
f 197//143 599//143 601//143
f 490//142 487//142 491//142
f 495//144 490//144 491//144
f 217//145 496//145 492//145
f 489//144 604//144 602//144
f 197//146 603//146 199//146
f 235//147 496//147 238//147
f 494//148 499//148 498//148
f 493//148 606//148 604//148
f 179//149 603//149 605//149
f 235//150 504//150 500//150
f 179//151 607//151 169//151
f 497//152 608//152 606//152
f 498//152 503//152 502//152
f 249//153 111//153 95//153
f 111//154 265//154 114//154
f 265//155 125//155 114//155
f 264//156 97//156 125//156
f 94//157 35//157 4//157
f 35//158 124//158 37//158
f 124//159 50//159 37//159
f 122//160 7//160 50//160
f 136//161 311//161 287//161
f 163//162 314//162 311//162
f 314//163 150//163 293//163
f 293//164 134//164 283//164
f 174//165 251//165 245//165
f 202//166 254//166 251//166
f 189//167 267//167 254//167
f 188//168 248//168 267//168
f 2//169 175//169 169//169
f 175//170 48//170 177//170
f 48//171 192//171 177//171
f 45//172 172//172 192//172
f 58//173 137//173 132//173
f 78//174 139//174 137//174
f 64//175 154//175 139//175
f 61//176 134//176 154//176
f 509//177 511//177 507//177
f 426//177 510//177 427//177
f 425//177 608//177 501//177
f 169//178 569//178 2//178
f 516//177 502//177 503//177
f 519//177 513//177 515//177
f 60//179 504//179 212//179
f 508//177 520//177 518//177
f 521//180 468//180 523//180
f 527//180 528//180 525//180
f 94//181 577//181 591//181
f 441//180 592//180 578//180
f 536//180 442//180 443//180
f 530//180 533//180 535//180
f 526//180 529//180 532//180
f 58//182 466//182 444//182
f 97//183 172//183 7//183
f 283//184 614//184 610//184
f 55//185 618//185 616//185
f 540//186 544//186 537//186
f 538//186 462//186 539//186
f 249//187 597//187 587//187
f 481//186 588//186 598//186
f 547//186 541//186 549//186
f 551//186 482//186 483//186
f 136//188 464//188 484//188
f 548//186 545//186 550//186
f 558//189 555//189 554//189
f 560//189 486//189 559//189
f 485//189 582//189 445//189
f 245//190 599//190 174//190
f 446//189 561//189 563//189
f 564//189 568//189 566//189
f 557//189 565//189 567//189
f 207//191 448//191 285//191
f 581//192 579//192 14//192
f 591//192 577//192 16//192
f 28//183 31//183 578//183
f 608//183 570//183 30//183
f 28//186 14//186 20//186
f 30//189 14//189 26//189
f 31//180 20//180 16//180
f 31//177 23//177 30//177
f 3//202 614//202 5//202
f 9//203 615//203 613//203
f 24//204 616//204 618//204
f 15//205 611//205 612//205
f 3//180 609//180 610//180
f 5//177 611//177 15//177
f 22//192 24//192 9//192
f 615//186 24//186 618//186
f 22//189 617//189 616//189
f 10//206 27//206 19//206
f 13//207 32//207 27//207
f 27//208 53//208 48//208
f 27//209 32//209 34//209
f 35//210 41//210 39//210
f 37//211 43//211 41//211
f 41//212 32//212 13//212
f 41//213 43//213 34//213
f 45//214 52//214 50//214
f 48//215 53//215 52//215
f 52//216 43//216 37//216
f 52//217 53//217 34//217
f 61//218 67//218 65//218
f 64//219 70//219 67//219
f 67//220 91//220 85//220
f 67//221 70//221 72//221
f 73//222 79//222 78//222
f 76//223 82//223 79//223
f 79//224 70//224 64//224
f 79//225 82//225 72//225
f 83//226 90//226 88//226
f 85//227 91//227 90//227
f 90//228 82//228 76//228
f 90//229 91//229 72//229
f 100//230 106//230 104//230
f 102//231 108//231 106//231
f 106//232 130//232 124//232
f 106//233 108//233 110//233
f 111//234 117//234 115//234
f 114//235 120//235 117//235
f 117//236 108//236 102//236
f 117//237 120//237 110//237
f 122//238 127//238 125//238
f 124//239 130//239 127//239
f 127//240 120//240 114//240
f 127//241 130//241 110//241
f 137//242 144//242 141//242
f 139//243 145//243 144//243
f 144//244 167//244 161//244
f 144//245 145//245 148//245
f 150//246 156//246 154//246
f 152//247 157//247 156//247
f 156//248 145//248 139//248
f 156//249 157//249 148//249
f 159//250 165//250 163//250
f 161//251 167//251 165//251
f 165//252 157//252 152//252
f 165//253 167//253 148//253
f 175//254 181//254 179//254
f 177//255 183//255 181//255
f 181//256 206//256 199//256
f 181//257 183//257 186//257
f 188//258 193//258 192//258
f 189//259 195//259 193//259
f 193//260 183//260 177//260
f 193//261 195//261 186//261
f 197//262 204//262 202//262
f 199//263 206//263 204//263
f 204//264 195//264 189//264
f 204//265 206//265 186//265
f 214//266 220//266 217//266
f 215//267 222//267 220//267
f 220//268 243//268 238//268
f 220//269 222//269 224//269
f 225//270 232//270 229//270
f 228//271 233//271 232//271
f 232//272 222//272 215//272
f 232//273 233//273 224//273
f 235//274 241//274 239//274
f 238//275 243//275 241//275
f 241//276 233//276 228//276
f 241//277 243//277 224//277
f 251//278 257//278 256//278
f 254//279 259//279 257//279
f 257//280 281//280 275//280
f 257//281 259//281 261//281
f 264//282 269//282 267//282
f 265//283 271//283 269//283
f 269//284 259//284 254//284
f 269//285 271//285 261//285
f 274//286 279//286 278//286
f 275//287 281//287 279//287
f 279//288 271//288 265//288
f 279//289 281//289 261//289
f 290//290 296//290 293//290
f 291//291 297//291 296//291
f 296//292 320//292 314//292
f 296//293 297//293 299//293
f 302//294 308//294 305//294
f 304//295 309//295 308//295
f 308//296 297//296 291//296
f 308//297 309//297 299//297
f 311//298 317//298 315//298
f 314//299 320//299 317//299
f 317//300 309//300 304//300
f 317//301 320//301 299//301
f 285//97 305//97 214//97
f 305//98 291//98 215//98
f 291//99 290//99 229//99
f 290//302 283//302 210//302
f 212//101 239//101 83//101
f 239//102 228//102 85//102
f 85//103 228//103 225//103
f 65//303 225//303 210//303
f 88//304 432//304 428//304
f 425//106 429//106 572//106
f 10//305 2//305 569//305
f 430//106 426//106 427//106
f 88//306 76//306 436//306
f 429//109 433//109 574//109
f 10//307 571//307 573//307
f 430//109 431//109 435//109
f 436//308 76//308 73//308
f 39//309 13//309 573//309
f 433//113 437//113 576//113
f 435//113 439//113 438//113
f 73//310 58//310 444//310
f 577//311 4//311 39//311
f 437//116 441//116 578//116
f 439//116 443//116 442//116
f 449//117 445//117 582//117
f 256//312 579//312 581//312
f 450//117 451//117 447//117
f 302//313 285//313 448//313
f 454//120 455//120 451//120
f 453//120 449//120 580//120
f 256//314 275//314 583//314
f 456//315 304//315 302//315
f 583//316 275//316 274//316
f 457//124 453//124 584//124
f 454//124 458//124 459//124
f 315//317 304//317 456//317
f 274//318 249//318 587//318
f 461//127 457//127 586//127
f 458//127 462//127 463//127
f 464//319 287//319 315//319
f 466//320 132//320 141//320
f 100//321 94//321 591//321
f 467//131 469//131 590//131
f 465//131 471//131 470//131
f 471//132 475//132 474//132
f 141//322 161//322 476//322
f 593//323 102//323 100//323
f 469//132 473//132 594//132
f 476//324 161//324 159//324
f 115//325 102//325 593//325
f 473//137 477//137 596//137
f 478//137 474//137 475//137
f 159//326 136//326 484//326
f 597//327 95//327 115//327
f 477//140 481//140 598//140
f 479//140 483//140 482//140
f 488//328 207//328 217//328
f 485//142 489//142 602//142
f 197//329 174//329 599//329
f 490//142 486//142 487//142
f 495//144 494//144 490//144
f 217//330 238//330 496//330
f 489//144 493//144 604//144
f 197//331 601//331 603//331
f 235//332 500//332 496//332
f 494//148 495//148 499//148
f 493//148 497//148 606//148
f 179//333 199//333 603//333
f 235//334 212//334 504//334
f 179//335 605//335 607//335
f 497//152 501//152 608//152
f 498//152 499//152 503//152
f 249//153 278//153 111//153
f 111//154 278//154 265//154
f 265//155 264//155 125//155
f 264//156 248//156 97//156
f 94//157 104//157 35//157
f 35//158 104//158 124//158
f 124//159 122//159 50//159
f 122//160 97//160 7//160
f 136//161 163//161 311//161
f 163//162 152//162 314//162
f 314//163 152//163 150//163
f 293//336 150//336 134//336
f 174//165 202//165 251//165
f 202//166 189//166 254//166
f 189//167 188//167 267//167
f 188//168 172//168 248//168
f 2//169 19//169 175//169
f 175//170 19//170 48//170
f 48//171 45//171 192//171
f 45//172 7//172 172//172
f 58//173 78//173 137//173
f 78//174 64//174 139//174
f 64//175 61//175 154//175
f 61//337 55//337 134//337
f 509//177 506//177 511//177
f 426//177 512//177 510//177
f 425//177 570//177 608//177
f 169//178 607//178 569//178
f 516//177 514//177 502//177
f 519//177 517//177 513//177
f 60//179 428//179 504//179
f 508//177 505//177 520//177
f 521//180 465//180 468//180
f 527//180 522//180 528//180
f 94//181 4//181 577//181
f 441//180 467//180 592//180
f 536//180 534//180 442//180
f 530//180 531//180 533//180
f 526//180 524//180 529//180
f 58//182 132//182 466//182
f 97//183 248//183 172//183
f 134//338 612//338 611//338
f 134//339 611//339 283//339
f 611//338 614//338 283//338
f 609//340 613//340 210//340
f 610//340 609//340 283//340
f 609//341 210//341 283//341
f 617//342 612//342 134//342
f 210//343 613//343 615//343
f 210//344 615//344 55//344
f 615//343 618//343 55//343
f 617//345 134//345 55//345
f 616//342 617//342 55//342
f 540//186 542//186 544//186
f 538//186 463//186 462//186
f 249//187 95//187 597//187
f 481//186 461//186 588//186
f 547//186 543//186 541//186
f 551//186 552//186 482//186
f 136//188 287//188 464//188
f 548//186 546//186 545//186
f 558//189 556//189 555//189
f 560//189 487//189 486//189
f 485//189 600//189 582//189
f 245//190 581//190 599//190
f 446//189 447//189 561//189
f 564//189 562//189 568//189
f 557//189 553//189 565//189
f 207//191 488//191 448//191
f 587//192 597//192 14//192
f 597//192 595//192 20//192
f 14//192 597//192 20//192
f 595//192 593//192 20//192
f 14//192 23//192 599//192
f 23//192 603//192 601//192
f 599//192 23//192 601//192
f 585//192 587//192 14//192
f 579//192 583//192 14//192
f 583//192 585//192 14//192
f 599//192 581//192 14//192
f 577//192 575//192 16//192
f 575//192 573//192 16//192
f 573//192 571//192 16//192
f 571//192 569//192 16//192
f 569//192 607//192 16//192
f 607//192 605//192 23//192
f 16//192 607//192 23//192
f 605//192 603//192 23//192
f 16//192 20//192 591//192
f 20//192 593//192 589//192
f 591//192 20//192 589//192
f 588//183 586//183 26//183
f 586//183 584//183 26//183
f 584//183 580//183 26//183
f 580//183 582//183 26//183
f 582//183 600//183 26//183
f 600//183 602//183 30//183
f 26//183 600//183 30//183
f 602//183 604//183 30//183
f 598//183 588//183 28//183
f 28//183 588//183 26//183
f 594//183 596//183 28//183
f 596//183 598//183 28//183
f 592//183 590//183 28//183
f 590//183 594//183 28//183
f 576//183 578//183 31//183
f 578//183 592//183 28//183
f 31//183 574//183 576//183
f 570//183 572//183 31//183
f 572//183 574//183 31//183
f 31//183 30//183 570//183
f 30//183 604//183 606//183
f 606//183 608//183 30//183
f 28//186 26//186 14//186
f 30//189 23//189 14//189
f 31//180 28//180 20//180
f 31//177 16//177 23//177
f 3//202 610//202 614//202
f 613//203 609//203 11//203
f 11//203 9//203 613//203
f 24//204 22//204 616//204
f 617//205 18//205 612//205
f 18//205 15//205 612//205
f 3//180 11//180 609//180
f 5//177 614//177 611//177
f 9//192 11//192 15//192
f 11//192 3//192 15//192
f 3//192 5//192 15//192
f 15//192 18//192 9//192
f 18//192 22//192 9//192
f 615//186 9//186 24//186
f 22//189 18//189 617//189
usemtl Material2
f 98//117 231//117 187//117
f 173//120 242//120 231//120
f 166//124 244//124 242//124
f 133//127 213//127 244//127
f 258//142 250//142 246//142
f 263//144 252//144 250//144
f 262//148 253//148 252//148
f 260//152 247//152 253//152
f 246//189 8//189 109//189
f 325//189 356//189 324//189
f 328//189 355//189 327//189
f 109//189 330//189 331//189
f 129//189 332//189 323//189
f 365//189 326//189 1//189
f 366//189 329//189 8//189
f 277//106 270//106 266//106
f 284//109 272//109 270//109
f 282//113 273//113 272//113
f 280//116 268//116 273//116
f 266//177 205//177 185//177
f 307//177 360//177 306//177
f 312//177 359//177 313//177
f 185//177 318//177 319//177
f 171//177 321//177 322//177
f 361//177 310//177 208//177
f 362//177 316//177 205//177
f 298//131 289//131 286//131
f 303//132 292//132 289//132
f 301//137 294//137 292//137
f 300//140 288//140 294//140
f 268//180 218//180 176//180
f 184//180 344//180 343//180
f 176//180 346//180 345//180
f 348//180 354//180 349//180
f 351//180 353//180 352//180
f 364//180 347//180 218//180
f 363//180 350//180 211//180
f 288//186 33//186 140//186
f 107//186 336//186 333//186
f 140//186 335//186 334//186
f 338//186 358//186 339//186
f 342//186 357//186 341//186
f 368//186 337//186 33//186
f 367//186 340//186 17//186
f 493//183 253//183 497//183
f 288//183 481//183 477//183
f 434//192 438//192 280//192
f 349//192 533//192 531//192
f 321//192 507//192 511//192
f 318//192 520//192 505//192
f 346//192 529//192 524//192
f 344//192 525//192 528//192
f 313//192 513//192 517//192
f 494//192 498//192 260//192
f 332//192 556//192 558//192
f 474//192 478//192 300//192
f 339//192 545//192 546//192
f 330//192 565//192 553//192
f 335//192 549//192 541//192
f 327//192 564//192 566//192
f 454//192 450//192 231//192
f 336//192 542//192 540//192
f 416//189 331//189 371//189
f 160//189 370//189 423//189
f 423//189 369//189 416//189
f 331//193 555//193 556//193
f 330//194 557//194 371//194
f 415//189 323//189 374//189
f 158//189 373//189 424//189
f 424//189 372//189 415//189
f 323//193 560//193 559//193
f 332//194 554//194 374//194
f 375//193 534//193 536//193
f 376//180 351//180 352//180
f 375//180 191//180 376//180
f 350//194 535//194 533//194
f 377//193 531//193 530//193
f 378//180 348//180 349//180
f 377//180 194//180 378//180
f 347//194 532//194 529//194
f 328//189 327//189 379//189
f 380//189 149//189 379//189
f 329//195 567//195 565//195
f 327//196 568//196 380//196
f 381//189 325//189 324//189
f 164//189 382//189 92//189
f 326//195 562//195 564//195
f 324//196 561//196 382//196
f 344//195 522//195 383//195
f 411//180 343//180 383//180
f 196//180 385//180 422//180
f 384//180 422//180 385//180
f 343//196 521//196 523//196
f 346//195 526//195 386//195
f 412//180 345//180 386//180
f 198//197 388//197 421//197
f 387//180 421//180 388//180
f 345//196 527//196 525//196
f 318//198 508//198 389//198
f 409//177 319//177 389//177
f 200//177 391//177 417//177
f 417//177 390//177 409//177
f 319//199 509//199 507//199
f 321//198 506//198 392//198
f 410//177 322//177 392//177
f 203//177 394//177 418//177
f 418//177 393//177 410//177
f 322//199 510//199 512//199
f 395//186 342//186 341//186
f 396//186 143//186 395//186
f 340//198 550//198 545//198
f 341//199 551//199 396//199
f 397//186 338//186 339//186
f 398//186 153//186 397//186
f 337//198 547//198 549//198
f 339//199 548//199 398//199
f 399//200 517//200 519//200
f 312//177 313//177 400//177
f 399//177 190//177 400//177
f 316//201 518//201 520//201
f 401//200 514//200 516//200
f 402//177 307//177 306//177
f 201//177 401//177 230//177
f 310//201 515//201 513//201
f 413//186 333//186 405//186
f 162//186 404//186 419//186
f 403//186 419//186 404//186
f 333//200 538//200 539//200
f 336//201 537//201 405//201
f 414//186 334//186 408//186
f 168//186 407//186 420//186
f 406//186 420//186 407//186
f 334//200 544//200 542//200
f 335//201 543//201 408//201
f 44//131 21//131 6//131
f 54//132 25//132 21//132
f 51//137 36//137 25//137
f 47//140 12//140 36//140
f 74//106 62//106 57//106
f 86//109 63//109 62//109
f 81//113 69//113 63//113
f 77//116 59//116 69//116
f 71//180 236//180 194//180
f 105//142 96//142 89//142
f 118//144 99//144 96//144
f 116//148 101//148 99//148
f 112//152 93//152 101//152
f 103//177 240//177 190//177
f 128//117 147//117 142//117
f 138//120 151//120 147//120
f 135//124 155//124 151//124
f 131//127 146//127 155//127
f 105//189 84//189 149//189
f 38//186 87//186 153//186
f 495//183 491//183 96//183
f 374//183 555//183 369//183
f 402//183 519//183 515//183
f 389//183 518//183 400//183
f 371//183 567//183 379//183
f 380//183 562//183 381//183
f 390//183 506//183 509//183
f 435//183 431//183 62//183
f 377//183 535//183 376//183
f 455//183 459//183 131//183
f 405//183 544//183 406//183
f 386//183 532//183 378//183
f 408//183 547//183 397//183
f 383//183 527//183 387//183
f 475//183 471//183 21//183
f 398//183 550//183 395//183
f 476//192 54//192 472//192
f 105//192 488//192 492//192
f 98//117 173//117 231//117
f 173//120 166//120 242//120
f 166//124 133//124 244//124
f 133//127 49//127 213//127
f 258//142 263//142 250//142
f 263//144 262//144 252//144
f 262//148 260//148 253//148
f 260//152 255//152 247//152
f 129//189 323//189 246//189
f 323//189 258//189 246//189
f 98//189 187//189 324//189
f 324//189 356//189 98//189
f 356//189 1//189 98//189
f 113//189 326//189 327//189
f 1//189 113//189 8//189
f 113//189 327//189 355//189
f 113//189 355//189 8//189
f 246//189 98//189 8//189
f 98//189 1//189 8//189
f 331//189 332//189 40//189
f 331//189 40//189 109//189
f 40//189 129//189 109//189
f 126//189 329//189 330//189
f 8//189 126//189 46//189
f 126//189 330//189 46//189
f 109//189 129//189 246//189
f 8//189 46//189 109//189
f 325//189 365//189 356//189
f 328//189 366//189 355//189
f 109//189 46//189 330//189
f 129//189 40//189 332//189
f 365//189 325//189 326//189
f 326//189 113//189 1//189
f 1//189 356//189 365//189
f 366//189 328//189 329//189
f 329//189 126//189 8//189
f 8//189 355//189 366//189
f 277//106 284//106 270//106
f 284//109 282//109 272//109
f 282//113 280//113 273//113
f 280//116 276//116 268//116
f 171//177 322//177 266//177
f 322//177 277//177 266//177
f 247//177 255//177 306//177
f 306//346 360//346 247//346
f 360//177 208//177 247//177
f 182//177 310//177 313//177
f 208//177 182//177 205//177
f 182//177 313//177 359//177
f 182//177 359//177 205//177
f 266//177 247//177 205//177
f 247//177 208//177 205//177
f 319//177 321//177 219//177
f 319//177 219//177 185//177
f 219//177 171//177 185//177
f 170//177 316//177 318//177
f 205//177 170//177 209//177
f 170//177 318//177 209//177
f 185//177 171//177 266//177
f 205//177 209//177 185//177
f 307//177 361//177 360//177
f 312//177 362//177 359//177
f 185//177 209//177 318//177
f 171//177 219//177 321//177
f 361//347 307//347 310//347
f 310//177 182//177 208//177
f 208//177 360//177 361//177
f 362//177 312//177 316//177
f 316//177 170//177 205//177
f 205//177 359//177 362//177
f 298//131 303//131 289//131
f 303//132 301//132 292//132
f 301//137 300//137 294//137
f 300//140 295//140 288//140
f 184//180 343//180 286//180
f 343//180 298//180 286//180
f 268//180 276//180 352//180
f 268//180 352//180 353//180
f 345//180 344//180 221//180
f 184//180 286//180 176//180
f 286//180 268//180 176//180
f 345//180 221//180 176//180
f 221//180 184//180 176//180
f 268//180 353//180 211//180
f 180//180 350//180 349//180
f 211//180 180//180 218//180
f 180//180 349//180 354//180
f 218//180 180//180 354//180
f 178//180 347//180 346//180
f 218//180 178//180 216//180
f 178//180 346//180 216//180
f 268//180 211//180 218//180
f 218//180 216//180 176//180
f 184//180 221//180 344//180
f 176//180 216//180 346//180
f 348//180 364//180 354//180
f 351//180 363//180 353//180
f 364//180 348//180 347//180
f 347//180 178//180 218//180
f 218//180 354//180 364//180
f 363//180 351//180 350//180
f 350//180 180//180 211//180
f 211//180 353//180 363//180
f 107//186 333//186 49//186
f 333//186 213//186 49//186
f 288//186 295//186 341//186
f 341//186 357//186 288//186
f 357//186 17//186 288//186
f 119//186 340//186 339//186
f 17//186 119//186 33//186
f 119//348 339//348 358//348
f 33//186 119//186 358//186
f 121//186 337//186 335//186
f 33//186 121//186 42//186
f 121//186 335//186 42//186
f 288//186 17//186 33//186
f 334//186 336//186 29//186
f 107//186 49//186 140//186
f 49//186 288//186 140//186
f 334//186 29//186 140//186
f 29//186 107//186 140//186
f 33//186 42//186 140//186
f 107//186 29//186 336//186
f 140//186 42//186 335//186
f 338//186 368//186 358//186
f 342//186 367//186 357//186
f 368//186 338//186 337//186
f 337//186 121//186 33//186
f 33//186 358//186 368//186
f 367//186 342//186 340//186
f 340//186 119//186 17//186
f 17//186 357//186 367//186
f 493//183 489//183 250//183
f 489//183 246//183 250//183
f 250//183 252//183 493//183
f 252//183 253//183 493//183
f 253//183 247//183 497//183
f 501//183 497//183 247//183
f 247//183 266//183 501//183
f 266//183 270//183 429//183
f 501//183 266//183 425//183
f 270//183 272//183 433//183
f 272//183 273//183 433//183
f 273//183 268//183 437//183
f 268//183 286//183 467//183
f 286//183 289//183 469//183
f 289//183 292//183 473//183
f 469//183 289//183 473//183
f 292//183 294//183 473//183
f 294//183 288//183 477//183
f 288//183 49//183 461//183
f 49//183 133//183 457//183
f 461//183 49//183 457//183
f 133//183 166//183 453//183
f 166//183 173//183 453//183
f 173//183 98//183 449//183
f 98//183 246//183 445//183
f 246//183 489//183 485//183
f 246//183 485//183 445//183
f 294//183 477//183 473//183
f 268//183 467//183 441//183
f 467//183 286//183 469//183
f 425//183 266//183 429//183
f 98//183 445//183 449//183
f 429//183 270//183 433//183
f 173//183 449//183 453//183
f 437//183 433//183 273//183
f 133//183 453//183 457//183
f 441//183 437//183 268//183
f 288//183 461//183 481//183
f 442//192 534//192 352//192
f 352//192 276//192 442//192
f 276//192 280//192 438//192
f 442//192 276//192 438//192
f 280//192 282//192 434//192
f 282//192 284//192 434//192
f 284//192 277//192 430//192
f 277//192 322//192 426//192
f 430//192 277//192 426//192
f 322//192 512//192 426//192
f 284//192 430//192 434//192
f 349//192 350//192 533//192
f 321//192 319//192 507//192
f 318//192 316//192 520//192
f 346//192 347//192 529//192
f 344//192 345//192 525//192
f 313//192 310//192 513//192
f 502//192 514//192 306//192
f 306//192 255//192 502//192
f 255//192 260//192 498//192
f 502//192 255//192 498//192
f 260//192 262//192 494//192
f 262//192 263//192 494//192
f 263//192 258//192 490//192
f 258//192 323//192 486//192
f 490//192 258//192 486//192
f 323//192 559//192 486//192
f 263//192 490//192 494//192
f 332//192 331//192 556//192
f 482//192 552//192 341//192
f 341//192 295//192 482//192
f 295//192 300//192 478//192
f 482//192 295//192 478//192
f 300//192 301//192 474//192
f 301//192 303//192 474//192
f 303//192 298//192 470//192
f 298//192 343//192 468//192
f 470//192 298//192 468//192
f 343//192 523//192 468//192
f 303//192 470//192 474//192
f 339//192 340//192 545//192
f 330//192 329//192 565//192
f 335//192 337//192 549//192
f 327//192 326//192 564//192
f 446//192 563//192 324//192
f 324//192 187//192 446//192
f 187//192 231//192 450//192
f 446//192 187//192 450//192
f 231//192 242//192 454//192
f 242//192 244//192 454//192
f 244//192 213//192 458//192
f 213//192 333//192 462//192
f 458//192 213//192 462//192
f 333//192 539//192 462//192
f 244//192 458//192 454//192
f 336//192 334//192 542//192
f 416//189 369//189 331//189
f 331//189 330//189 371//189
f 423//189 416//189 84//189
f 416//189 371//189 84//189
f 84//189 160//189 423//189
f 423//189 370//189 369//189
f 331//193 369//193 555//193
f 330//194 553//194 557//194
f 415//189 372//189 323//189
f 323//189 332//189 374//189
f 424//189 415//189 56//189
f 415//189 374//189 56//189
f 56//189 158//189 424//189
f 424//189 373//189 372//189
f 323//193 372//193 560//193
f 332//194 558//194 554//194
f 375//193 352//193 534//193
f 352//180 375//180 376//180
f 376//180 350//180 351//180
f 375//180 226//180 191//180
f 350//194 376//194 535//194
f 377//193 349//193 531//193
f 349//180 377//180 378//180
f 378//180 347//180 348//180
f 377//180 223//180 194//180
f 347//194 378//194 532//194
f 380//189 379//189 327//189
f 379//189 329//189 328//189
f 380//189 80//189 149//189
f 329//195 379//195 567//195
f 327//196 566//196 568//196
f 324//189 382//189 381//189
f 381//189 326//189 325//189
f 164//189 381//189 382//189
f 326//195 381//195 562//195
f 324//196 563//196 561//196
f 344//195 528//195 522//195
f 411//180 384//180 343//180
f 343//180 344//180 383//180
f 422//180 411//180 234//180
f 411//180 383//180 234//180
f 234//180 196//180 422//180
f 384//180 411//180 422//180
f 343//196 384//196 521//196
f 346//195 524//195 526//195
f 412//180 387//180 345//180
f 345//180 346//180 386//180
f 421//180 412//180 236//180
f 412//180 386//180 236//180
f 236//180 198//180 421//180
f 387//180 412//180 421//180
f 345//196 387//196 527//196
f 318//198 505//198 508//198
f 409//177 390//177 319//177
f 319//177 318//177 389//177
f 417//177 409//177 240//177
f 409//177 389//177 240//177
f 240//177 200//177 417//177
f 417//177 391//177 390//177
f 319//199 390//199 509//199
f 321//198 511//198 506//198
f 410//177 393//177 322//177
f 322//177 321//177 392//177
f 418//347 410//347 237//347
f 410//177 392//177 237//177
f 237//177 203//177 418//177
f 418//346 394//346 393//346
f 322//199 393//199 510//199
f 341//186 396//186 395//186
f 395//186 340//186 342//186
f 396//186 75//186 143//186
f 340//198 395//198 550//198
f 341//199 552//199 551//199
f 339//186 398//186 397//186
f 397//186 337//186 338//186
f 398//186 68//186 153//186
f 337//198 397//198 547//198
f 339//199 546//199 548//199
f 399//200 313//200 517//200
f 399//177 400//177 313//177
f 400//177 316//177 312//177
f 399//177 227//177 190//177
f 316//201 400//201 518//201
f 401//200 306//200 514//200
f 306//177 401//177 402//177
f 402//177 310//177 307//177
f 201//177 402//177 401//177
f 310//201 402//201 515//201
f 413//186 403//186 333//186
f 333//186 336//186 405//186
f 419//349 413//349 66//349
f 413//186 405//186 66//186
f 66//186 162//186 419//186
f 403//349 413//349 419//349
f 333//200 403//200 538//200
f 336//201 540//201 537//201
f 414//186 406//186 334//186
f 334//186 335//186 408//186
f 420//186 414//186 87//186
f 414//186 408//186 87//186
f 87//186 168//186 420//186
f 406//186 414//186 420//186
f 334//200 406//200 544//200
f 335//201 541//201 543//201
f 44//131 54//131 21//131
f 54//132 51//132 25//132
f 51//137 47//137 36//137
f 47//140 38//140 12//140
f 74//106 86//106 62//106
f 86//109 81//109 63//109
f 81//113 77//113 69//113
f 77//116 71//116 59//116
f 375//180 59//180 226//180
f 59//180 71//180 226//180
f 44//180 6//180 196//180
f 6//180 384//180 385//180
f 196//180 6//180 385//180
f 234//180 383//180 198//180
f 383//180 387//180 388//180
f 383//180 388//180 198//180
f 44//180 196//180 234//180
f 377//180 376//180 223//180
f 376//180 191//180 223//180
f 191//180 226//180 71//180
f 71//180 44//180 236//180
f 44//180 234//180 236//180
f 236//180 386//180 378//180
f 234//180 198//180 236//180
f 236//180 378//180 194//180
f 194//180 223//180 191//180
f 194//180 191//180 71//180
f 105//142 118//142 96//142
f 118//144 116//144 99//144
f 116//148 112//148 101//148
f 112//152 103//152 93//152
f 230//177 401//177 93//177
f 74//177 57//177 203//177
f 57//346 393//346 394//346
f 203//177 57//177 394//177
f 237//177 392//177 200//177
f 392//177 390//177 391//177
f 392//177 391//177 200//177
f 74//177 203//177 237//177
f 230//177 93//177 103//177
f 399//177 402//177 227//177
f 402//177 201//177 227//177
f 201//177 230//177 103//177
f 103//177 74//177 240//177
f 74//177 237//177 240//177
f 240//177 389//177 400//177
f 237//177 200//177 240//177
f 240//177 400//177 190//177
f 190//177 227//177 201//177
f 190//177 201//177 103//177
f 128//117 138//117 147//117
f 138//120 135//120 151//120
f 135//124 131//124 155//124
f 131//127 123//127 146//127
f 56//189 374//189 160//189
f 374//189 369//189 370//189
f 160//189 374//189 370//189
f 84//189 371//189 379//189
f 84//189 379//189 149//189
f 56//189 160//189 84//189
f 372//189 373//189 89//189
f 373//189 158//189 89//189
f 382//189 128//189 92//189
f 128//189 142//189 92//189
f 105//189 89//189 158//189
f 105//189 158//189 56//189
f 164//189 92//189 142//189
f 380//189 381//189 80//189
f 381//189 164//189 80//189
f 164//189 142//189 149//189
f 142//189 105//189 149//189
f 105//189 56//189 84//189
f 149//189 80//189 164//189
f 396//186 12//186 75//186
f 12//186 38//186 75//186
f 146//186 123//186 162//186
f 123//186 403//186 404//186
f 162//186 123//186 404//186
f 66//186 405//186 168//186
f 405//186 406//186 407//186
f 405//186 407//186 168//186
f 146//186 162//186 66//186
f 398//186 395//186 68//186
f 395//186 143//186 68//186
f 143//186 75//186 38//186
f 38//186 146//186 87//186
f 146//186 66//186 87//186
f 87//186 408//186 397//186
f 66//186 168//186 87//186
f 87//186 397//186 153//186
f 153//186 68//186 143//186
f 153//186 143//186 38//186
f 487//183 560//183 372//183
f 372//183 89//183 487//183
f 89//183 96//183 491//183
f 487//183 89//183 491//183
f 96//183 99//183 495//183
f 99//183 101//183 495//183
f 101//183 93//183 499//183
f 93//183 401//183 503//183
f 499//183 93//183 503//183
f 401//183 516//183 503//183
f 101//183 499//183 495//183
f 374//183 554//183 555//183
f 402//183 399//183 519//183
f 389//183 508//183 518//183
f 371//183 557//183 567//183
f 380//183 568//183 562//183
f 390//183 392//183 506//183
f 427//183 510//183 393//183
f 393//183 57//183 427//183
f 57//183 62//183 431//183
f 427//183 57//183 431//183
f 62//183 63//183 435//183
f 63//183 69//183 435//183
f 69//183 59//183 439//183
f 59//183 375//183 443//183
f 439//183 59//183 443//183
f 375//183 536//183 443//183
f 69//183 439//183 435//183
f 377//183 530//183 535//183
f 463//183 538//183 403//183
f 403//183 123//183 463//183
f 123//183 131//183 459//183
f 463//183 123//183 459//183
f 131//183 135//183 455//183
f 135//183 138//183 455//183
f 138//183 128//183 451//183
f 128//183 382//183 447//183
f 451//183 128//183 447//183
f 382//183 561//183 447//183
f 138//183 451//183 455//183
f 405//183 537//183 544//183
f 386//183 526//183 532//183
f 408//183 543//183 547//183
f 383//183 522//183 527//183
f 465//183 521//183 384//183
f 384//183 6//183 465//183
f 6//183 21//183 471//183
f 465//183 6//183 471//183
f 21//183 25//183 475//183
f 25//183 36//183 475//183
f 36//183 12//183 479//183
f 12//183 396//183 483//183
f 479//183 12//183 483//183
f 396//183 551//183 483//183
f 36//183 479//183 475//183
f 398//183 548//183 550//183
f 476//192 480//192 47//192
f 480//192 38//192 47//192
f 47//192 51//192 476//192
f 51//192 54//192 476//192
f 54//192 44//192 472//192
f 466//192 472//192 44//192
f 44//192 71//192 466//192
f 71//192 77//192 440//192
f 466//192 71//192 444//192
f 77//192 81//192 436//192
f 81//192 86//192 436//192
f 86//192 74//192 432//192
f 74//192 103//192 504//192
f 103//192 112//192 500//192
f 112//192 116//192 496//192
f 500//192 112//192 496//192
f 116//192 118//192 496//192
f 118//192 105//192 492//192
f 105//192 142//192 448//192
f 142//192 147//192 452//192
f 448//192 142//192 452//192
f 147//192 151//192 456//192
f 151//192 155//192 456//192
f 155//192 146//192 460//192
f 146//192 38//192 464//192
f 38//192 480//192 484//192
f 38//192 484//192 464//192
f 118//192 492//192 496//192
f 74//192 504//192 428//192
f 504//192 103//192 500//192
f 444//192 71//192 440//192
f 146//192 464//192 460//192
f 440//192 77//192 436//192
f 155//192 460//192 456//192
f 432//192 436//192 86//192
f 147//192 456//192 452//192
f 428//192 432//192 74//192
f 105//192 448//192 488//192
